<svg xmlns="http://www.w3.org/2000/svg" version="1.1" xmlns:xlink="http://www.w3.org/1999/xlink" xmlns:svgjs="http://svgjs.dev/svgjs" width="2000" height="2024" viewBox="0 0 2000 2024"><g transform="matrix(1,0,0,1,1.767868852458946,0.8194331983804659)"><svg viewBox="0 0 244 247" data-background-color="#ffffff" preserveAspectRatio="xMidYMid meet" height="2024" width="2000" xmlns="http://www.w3.org/2000/svg" xmlns:xlink="http://www.w3.org/1999/xlink"><defs></defs><g id="tight-bounds" transform="matrix(1,0,0,1,-0.21567999999999188,-0.09999999999999432)"><svg viewBox="0 0 244.43135999999998 247.2" height="247.2" width="244.43135999999998"><g><svg></svg></g><g><svg viewBox="0 0 244.43135999999998 247.2" height="247.2" width="244.43135999999998"><g transform="matrix(1,0,0,1,0,100.3957626739726)"><svg viewBox="0 0 244.43135999999998 46.40847465205479" height="46.40847465205479" width="244.43135999999998"><g><svg viewBox="0 0 244.43135999999998 46.40847465205479" height="46.40847465205479" width="244.43135999999998"><g><svg viewBox="0 0 244.43135999999998 46.40847465205479" height="46.40847465205479" width="244.43135999999998"><g><svg viewBox="0 0 244.43135999999998 46.40847465205479" height="46.40847465205479" width="244.43135999999998"><g><svg viewBox="0 0 244.43135999999998 46.40847465205479" height="46.40847465205479" width="244.43135999999998"><g><svg viewBox="0 0 244.43135999999998 46.40847465205479" height="46.40847465205479" width="244.43135999999998"><g transform="matrix(1,0,0,1,0,0)"><svg width="244.43135999999998" viewBox="3.25 -34.25 182.49000549316406 34.650001525878906" height="46.40847465205479" data-palette-color="#000000"><path d="M14.85-10.9L14.85-10.9 10.95-10.9 10.95 0 3.25 0 3.25-33.7 14.85-33.7Q20.45-33.7 23.93-30.55 27.4-27.4 27.4-22.55L27.4-22.55Q27.4-17 23.78-13.95 20.15-10.9 14.85-10.9ZM13.95-27.55L13.95-27.55 10.95-27.55 10.95-17 13.5-17Q19.6-17 19.6-22.55L19.6-22.55Q19.6-27.55 13.95-27.55ZM52.35-9.8L52.35-9.8Q52.35-5.25 49-2.43 45.65 0.4 40.1 0.4L40.1 0.4Q34.15 0.4 30.4-1.7L30.4-1.7 30.4-9.45Q34.95-6.15 40.1-6.15L40.1-6.15Q41.85-6.15 43-7.08 44.15-8 44.15-9.5L44.15-9.5Q44.15-10 44-10.45 43.85-10.9 43.45-11.3 43.05-11.7 42.67-11.98 42.3-12.25 41.57-12.63 40.85-13 40.35-13.25 39.85-13.5 38.87-13.95 37.9-14.4 37.3-14.65L37.3-14.65Q34.05-16.15 32.07-18.35 30.1-20.55 30.1-24.2L30.1-24.2Q30.1-28.55 33.3-31.23 36.5-33.9 42.15-33.9L42.15-33.9Q47.2-33.9 50.85-32.2L50.85-32.2 50.85-25Q46.8-27.35 42.45-27.35L42.45-27.35Q40.5-27.35 39.47-26.55 38.45-25.75 38.45-24.5 38.45-23.25 39.7-22.28 40.95-21.3 43.45-20.2L43.45-20.2Q45-19.5 46.02-18.98 47.05-18.45 48.37-17.53 49.7-16.6 50.47-15.58 51.25-14.55 51.8-13.05 52.35-11.55 52.35-9.8ZM73.7-12.4L73.7 0 66 0 66-12.35 54.5-33.7 63.5-33.7 65.55-28.8Q67.15-25 68.2-22.3 69.25-19.6 69.55-18.8L69.55-18.8 69.8-18Q70.3-20.25 74.2-28.8L74.2-28.8 76.4-33.7 85.34-33.7 73.7-12.4ZM114.14-9.05L114.14-1.5Q111.09 0.4 105.34 0.4L105.34 0.4Q97.94 0.4 92.97-4.38 87.99-9.15 87.99-16.75L87.99-16.75Q87.99-24.45 92.82-29.3 97.64-34.15 105.39-34.15L105.39-34.15Q111.09-34.15 114.14-32.25L114.14-32.25 114.14-24.85Q110.39-27.15 105.79-27.15L105.79-27.15Q101.74-27.15 98.99-24.33 96.24-21.5 96.24-16.75L96.24-16.75Q96.24-12.1 98.99-9.38 101.74-6.65 106.09-6.65L106.09-6.65Q110.79-6.65 114.14-9.05L114.14-9.05ZM147.69-33.7L147.69 0 139.94 0 139.94-13.45 127.59-13.45 127.59 0 119.89 0 119.89-33.7 127.59-33.7 127.59-20 139.94-20 139.94-33.7 147.69-33.7ZM185.74-16.95L185.74-16.95Q185.74-9.2 181.26-4.42 176.79 0.35 169.34 0.35L169.34 0.35Q161.84 0.35 157.39-4.4 152.94-9.15 152.94-16.95L152.94-16.95Q152.94-24.7 157.41-29.48 161.89-34.25 169.34-34.25L169.34-34.25Q176.84-34.25 181.29-29.5 185.74-24.75 185.74-16.95ZM163.39-24.48Q161.19-21.7 161.19-16.95 161.19-12.2 163.39-9.43 165.59-6.65 169.34-6.65 173.09-6.65 175.29-9.43 177.49-12.2 177.49-16.95 177.49-21.7 175.29-24.48 173.09-27.25 169.34-27.25 165.59-27.25 163.39-24.48Z" opacity="1" transform="matrix(1,0,0,1,0,0)" fill="#000000" class="undefined-text-0" data-fill-palette-color="primary" id="text-0"></path></svg></g></svg></g></svg></g></svg></g><g></g></svg></g></svg></g></svg></g><path d="M0 94.396L0 1 244.431 1 244.431 94.396 240.246 94.396 240.246 5.185 4.185 5.185 4.185 94.396 0 94.396M0 152.804L0 246.2 244.431 246.2 244.431 152.804 240.246 152.804 240.246 242.015 4.185 242.015 4.185 152.804 0 152.804" fill="#000000" stroke="transparent" data-fill-palette-color="primary"></path></svg></g></svg><rect width="244.43135999999998" height="247.2" fill="none" stroke="none" visibility="hidden"></rect></g></svg></g></svg>